<?xml version="1.0" encoding="UTF-8"?>
<svg id="Layer_1" data-name="Layer 1" xmlns="http://www.w3.org/2000/svg" viewBox="0 0 850.84 807.23">
  <defs>
    <style>
      .cls-1, .cls-2, .cls-3 {
        fill: #f7cb86;
      }

      .cls-2 {
        stroke-width: 15px;
      }

      .cls-2, .cls-4, .cls-3, .cls-5, .cls-6 {
        stroke: #333;
        stroke-linecap: round;
        stroke-linejoin: round;
      }

      .cls-2, .cls-3 {
        stroke-dasharray: 0 0 0 0 1000 40 500 15;
      }

      .cls-4 {
        fill: #c1aa7c;
      }

      .cls-4, .cls-3 {
        stroke-width: 10px;
      }

      .cls-5 {
        stroke-dasharray: 0 0 0 0 1003.64 55.76 0 0;
      }

      .cls-5, .cls-6 {
        fill: none;
        stroke-width: 25px;
      }

      .cls-7 {
        fill: #ffe89f;
      }

      .cls-6 {
        stroke-dasharray: 0 0 0 0 815.11 32.6 407.56 12.23;
      }
    </style>
  </defs>
  <g>
    <path class="cls-1" d="M526.78,61.01l135.56,197.99c30.17,44.06,56.91,90.38,79.98,138.54l81.46,170.03c44.56,93.01-18.22,201.75-121.05,209.66l-187.43,14.42c-53.61,4.12-107.46,4.12-161.06,0l-238.7-18.37c-78.15-6.01-125.87-88.66-92-159.35l103.44-215.9c23.23-48.49,50.16-95.12,80.53-139.49L342.78,61.01c44.28-64.68,139.72-64.68,184,0Z"/>
    <path class="cls-6" d="M526.78,61.01l135.56,197.99c30.17,44.06,56.91,90.38,79.98,138.54l81.46,170.03c44.56,93.01-18.22,201.75-121.05,209.66l-187.43,14.42c-53.61,4.12-107.46,4.12-161.06,0l-238.7-18.37c-78.15-6.01-125.87-88.66-92-159.35l103.44-215.9c23.23-48.49,50.16-95.12,80.53-139.49L342.78,61.01c44.28-64.68,139.72-64.68,184,0Z"/>
  </g>
  <g>
    <path class="cls-7" d="M457.87,86.08l152.03,222.04c21.44,31.31,40.44,64.22,56.83,98.43l116.28,242.69c8.5,17.74-3.47,38.48-23.09,39.98l-268.31,20.64c-37.83,2.91-75.83,2.91-113.66,0l-268.31-20.64c-19.61-1.51-31.58-22.25-23.09-39.98l116.28-242.69c16.39-34.22,35.39-67.13,56.83-98.43L411.7,86.08c11.11-16.23,35.06-16.23,46.17,0Z"/>
    <path class="cls-5" d="M457.87,86.08l152.03,222.04c21.44,31.31,40.44,64.22,56.83,98.43l116.28,242.69c8.5,17.74-3.47,38.48-23.09,39.98l-268.31,20.64c-37.83,2.91-75.83,2.91-113.66,0l-268.31-20.64c-19.61-1.51-31.58-22.25-23.09-39.98l116.28-242.69c16.39-34.22,35.39-67.13,56.83-98.43L411.7,86.08c11.11-16.23,35.06-16.23,46.17,0Z"/>
  </g>
  <path class="cls-4" d="M434.78,186.47l3.39,188.4c.91,50.29,27.63,96.58,70.73,122.51l161.46,97.14-164.86-91.26c-44.01-24.36-97.45-24.36-141.46,0l-164.86,91.26,161.46-97.14c43.1-25.93,69.83-72.22,70.73-122.51l3.39-188.4Z"/>
  <circle class="cls-2" cx="301.53" cy="269.75" r="12.75"/>
  <circle class="cls-3" cx="411.78" cy="144.11" r="4.88"/>
  <circle class="cls-2" cx="544.3" cy="648.87" r="33.75"/>
  <circle class="cls-2" cx="500.78" cy="317.5" r="21.49"/>
  <circle class="cls-2" cx="629.78" cy="445" r="6"/>
  <circle class="cls-2" cx="247.28" cy="451.75" r="6.75"/>
  <circle class="cls-3" cx="346.28" cy="603.14" r="8.63"/>
</svg>